<svg width="512" height="512" viewBox="0 0 512 512" fill="none" xmlns="http://www.w3.org/2000/svg">
<path d="M256 128V192L341.333 106.667L256 21.3333V85.3333C210.736 85.3333 167.327 103.314 135.32 135.32C103.314 167.327 85.3334 210.736 85.3334 256C85.3334 289.493 95.1467 320.64 111.787 346.88L142.933 315.733C133.087 297.366 127.956 276.84 128 256C128 222.052 141.486 189.495 165.49 165.49C189.495 141.486 222.052 128 256 128V128ZM400.213 165.12L369.067 196.267C378.453 214.187 384 234.667 384 256C384 289.948 370.514 322.505 346.51 346.51C322.505 370.514 289.948 384 256 384V320L170.667 405.333L256 490.667V426.667C301.264 426.667 344.673 408.686 376.68 376.68C408.686 344.673 426.667 301.264 426.667 256C426.667 222.507 416.853 191.36 400.213 165.12V165.12Z" fill="black"/>
</svg>
